<svg id="Layer_1" xmlns="http://www.w3.org/2000/svg" version="1.1" viewBox="0 0 600 600"><defs><style>.st0{stroke:#58595b;stroke-width:15.66px;fill:none;stroke-linecap:round;stroke-linejoin:round}.st5{fill:#227999}.st6{fill:#1b6d8c}.st8{fill:#399abd}.st9{fill:#414042}</style></defs><path class="st6" d="M266.68 472.55c7.02-2.19 13.18-6.24 19.11-10.6 15.29-11.42 29.11-25.59 38.44-42.36 13.47-23.54 19.48-50.82 20.78-77.76.38-7.82.27-15.66-.07-23.49a5.2 5.2 0 0 1 4.98-5.42c2.87-.12 5.3 2.1 5.42 4.97.35 8.13.47 16.28.07 24.42-1.38 29.61-8.4 59.49-23.67 85.13-2.53 4.13-5.79 9.02-8.77 12.82l-1.88 2.48-2.03 2.36c-10.77 12.55-23.31 23.55-37.53 32.14-3.67 2.13-8.09 4.13-12.16 5.34-5.51.18-9.45-1.51-14.91-4.1 4.07-1.95 8.19-3.94 12.22-5.96Z"/><path d="M350.41 338.66c.19-33.23-.56-81.55-45.68-81.55-42.77 0-43.46 48.78-42.48 81.56" style="stroke:#6d6e71;stroke-width:12.3px;fill:none;stroke-linecap:round;stroke-linejoin:round"/><path class="st5" d="M153.65 409.94c18.12-8.48 36.19-17.78 49.16-32.93 4.08-4.87 7.33-10.29 9.25-16.12 1.19-3.99 1.73-11.25 5.94-12.76 9.75-2.18 5.82 10.74 3.95 16.02-4.74 14.34-15.41 25.63-27.13 34.37-11.55 8.59-24.17 15.04-36.81 20.87a5.203 5.203 0 1 1-4.36-9.45Z"/><path d="M472.98 354.32c.65-29.06 1.28-59.65-2.6-88.65-1.05-6.09-2.75-12.75-4.55-18.69-6.38-21.55-17.3-41.84-32.28-58.59l-3.23-3.55c-1.14-1.19-4-3.96-5.1-5.09-1.15-1.05-4.14-3.75-5.35-4.84-1.25-1.05-4.37-3.56-5.58-4.57-1.2-.89-4.54-3.37-5.8-4.29-49.26-34.46-116.4-38.35-171.25-15.42-55.64 22.73-92.56 73.37-94.1 133.79-.24 6.47-.19 13.23-.5 20.16-.55 14.36-3.14 29.76-12.23 41.84-2.97 3.56-5.74 7.64-7.72 5.83-2.48-2.25-5.02-11.07-4.81-11.34.37-.81 1.19-1.86 1.72-2.64 3.34-4.55 5.73-9.87 7.15-15.72 4.14-17.39 1.52-36.33 4.15-54.24 10.81-96.91 105.58-153.99 197.88-144.73 36.37 3.33 72.1 17.16 99.91 41.07 6.46 5.68 12.93 12.05 18.38 18.71l3.33 4.06 3.13 4.22c.78 1.03 2.33 3.19 3.02 4.29 13.77 20.26 22.77 43.49 27.17 67.51 1.71 10.21 2.22 20.72 2.64 30.89.54 13.53.78 27.04.58 40.59-.07 4.65-.22 9.39-.45 14.05-.05 2.33.16 3.22-.04 6.52-3.66 10.3-13.43 37.52-15.8 44.23 1.29-15.1 1.98-30.25 2.32-45.39Z" style="fill:#5bc6ee"/><path class="st8" d="M126.65 362.35c9.4-8.05 19.07-18.76 24.42-29.8 4.2-8.69 1.95-17.89 1.03-27.33-.74-5.29-.45-11.38-.23-16.74.04-1.48.27-3.92.4-5.42.22-3.1.78-7.69 1.25-10.82 2.74-18.94 9.1-37.45 18.75-54 31.16-53.62 96.86-80.24 157.18-72.63 51.95 6 98 36.7 119.27 85.11 9.09 20.06 13.37 42.12 14.5 63.94.29 1.42.43 3.07.46 4.6.17 5.08.37 10.8.41 15.86.33 35.34-1.38 70.65-7.69 105.53-1.01 7.72-14.18 16.32-18 23.76.96-8.81 2.79-17.68 4.7-26.26 6.11-33.78 7.8-68.5 7.46-102.84-.05-5.63-.2-11.72-.52-17.36-.2-1.02-.34-2.24-.4-3.29-.68-13.47-2.74-26.81-6.4-39.66-13.19-46.59-48.87-80.51-95.72-92.27-64.67-16.8-140.68 10.76-169.33 73.39-7.72 16.59-11.83 34.86-12.8 53.1-.02 1.57-.27 5.96-.26 7.49.14 11.71 3.95 23.8.44 35.62-.43 1.58-.99 3.01-1.58 4.5-5.06 11.21-12.36 19.9-20.56 28.41-3.25 3.12-12.12 12.49-15.77 10.58-.35-2.48-4.17-8.76-3.79-10.69.61-1.02 1.89-1.93 2.77-2.78Z"/><path class="st8" d="M135.59 381.35c18.57-13.25 40.85-38.11 41.7-61.87.06-7.36-2.48-17.02-1.99-25.56.34-19.51 4.62-39.08 13.44-56.56 32.36-65.4 121.72-87.85 184.49-54.14 38.72 20.49 60.44 58.23 65.13 101.09.17 1.7.55 6.14.71 7.9.23 3.4-.24 6.04-.17 9.14 1.06 22.8.8 45.67-1.47 68.41-2.73 27.5-8.17 54.91-17.77 81.09-3.78 4.92-12.54 7.7-15.81 12.48 12.22-30.23 20.32-61.9 23.22-94.58 2.17-21.79 2.48-43.82 1.48-65.72-.24-3.24.28-7.13.13-10.14-.09-1.68-.57-5.79-.67-7.4-.18-1.54-.8-5.76-1-7.36-8.1-51.86-43.71-89.31-95.74-98.2-67.06-11.26-136.15 29.01-144.48 99.47-.85 6.31-1.25 13.07-1.07 19.45.33 6.2 1.98 13.01 1.98 20.7-.83 22.32-14.89 41.35-29.84 56.61-6.13 5.86-12.53 11.86-20.14 15.9-.75-.13-4.06-5.16-4.96-6.67-.5-.85-.77-1.3-.66-1.38.8-.98 2.41-1.88 3.49-2.64Z"/><path d="M142.15 397.61c11.03-5.88 21.57-13.4 30.85-21.8 9.17-8.12 16.73-18.25 20.95-29.74 6.91-18.03 4.33-37.48 4.86-56.56.33-25.51 9.26-46.91 27.17-65.12 6.39-6.71 13.74-12.97 21.46-18.11 10.77-6.97 22.85-12.2 35.39-14.95 47.51-10.89 99.57 11.76 122.32 55.2 3.83 7.62 7.11 15.78 8.99 24.1 2.45 9.79 3.17 19.91 4.09 29.91 3.34 42.84.45 87.15-14.72 127.82-5.5 14.43-11.74 28.82-20.14 41.78-.57.82-14.53 7.69-15.56 7.78-2.04.11-1.73-.65-1.03-2.14 1.39-3.12 7.19-9.53 9.22-13.12 26.87-45.64 35.85-99.13 32.45-151.64-.1-2.42-.42-7.23-.61-9.64-.88-9.48-1.53-19.07-3.84-28.3-2.45-10.47-6.89-20.71-12.85-29.67-24.1-36.96-73.34-53.31-115.03-39.48-8.04 2.72-15.88 6.42-22.99 11.07-1.38.84-4.33 3.12-5.71 4.03-3.58 2.74-7.34 6.12-10.64 9.22-12.21 11.72-22.14 26.29-25.52 43.05-2.68 12.39-2.12 25.11-2 37.94.52 21.09-2.6 41.37-15.37 58.91-3.99 5.73-8.77 10.69-13.88 15.36-10.11 9.11-21.02 16.9-33.05 23.33-6.06 3-10.97-5.72-4.82-9.23Z" style="fill:#2984a5"/><path class="st5" d="M165.07 426.46c35.42-15.13 69.34-45.42 74.17-85.31 2.47-23.36-4.85-48.88 5.77-71.59 5.38-11.67 14.7-20.97 25.3-28.08 27.44-18.75 65.3-13.24 86.92 11.76 10.62 11.92 16.72 27.26 18.3 42.97 1.08 14.98 1.75 29.93.93 44.94-1.98 42.05-13.6 85.4-41.69 117.74-9.96 11.77-22.12 21.33-34.96 29.77-3.81-.71-15.15-2.68-16.24-2.9 5.92-3.25 12.37-7 18.05-10.99 43.74-29.49 62.48-83.1 64.44-134.13.72-15.8.34-31.79-1.42-47.51-3.28-22.94-19.64-43.88-42.18-50.25-21.24-6.56-44.2 1.71-59 17.88-5.52 5.86-9.62 12.88-11.72 20.66-5.13 19.42.22 40.45-2.14 60.84-1.92 18.67-10.5 36.16-22.13 50.63-16.01 19.69-37.33 34.98-60.9 44.1-1.55-.02-6.2-6.13-7.65-7.46 2.07-1.03 4.12-2.05 6.16-3.07Z"/><path class="st6" d="M234.93 464.47c64.44-19.81 94.4-96.89 89.28-159.58-.85-8.01-1.68-16.82-9.18-20.71-4.85-2.14-11.8-2.3-16.6-.08-10.48 5.31-5.18 28.38-6.33 38.87-.45 3.86-.74 8.43-1.52 12.23-5.58 36.66-30.23 67.75-60.24 88.01-8.12 5.75-19.75 12.17-28.37 17.23-4.3 2.46-8.77 4.85-13.53 6.87-.58.23-1.66.73-2.37.79-.88.33-7.51-5.42-9.56-6.2 6.72-3.73 13.54-6.56 20.29-10.5l12.59-7.31c36.3-20.56 65.82-51.45 71.5-94.05l.73-6.93c.67-8.51-.7-16.56-.08-25.39.33-8.68 3.61-18.79 12.17-22.89 10.33-4.89 25.79-3.43 33.27 5.75 5.53 6.52 6.93 15.71 7.61 23.43 3.83 49.52-11.33 101.87-45.56 138.55-13.85 14.67-31.58 26.03-51.11 31.89-6.36 1.75-8.86-1.12-15.29-4.31-.87-1.88 10.37-4.92 12.31-5.66Z"/><path class="st6" d="M313.03 296.54c3.58 55.02-8.14 100.72-52.42 136.5-8.66 7.02-18.89 11.41-28.43 16.71-7.07 3.85-14.49 8.06-21.87 11.29-1.01.42-2.26.88-3.45.91-2.75-.98-5.53-3.33-9.34-7.62 3.09-.86 6.19-1.8 9.22-2.79-.34-.03-.79.05-1.04.14 7.21-3.06 14.62-7.33 21.54-11.08 9.11-5.09 18.86-9.2 26.91-15.71 23.25-18.74 38.8-42.31 45.16-71.61 4.13-18.28 4.48-37.15 3.34-56.04-.36-6.92 9.76-7.73 10.39-.69Z"/><path d="M369.08 243.21c-42.08-47.44-116.85-31.59-140.2 25.75-8.52 20.92-1.98 43.78-6.95 65.35" style="stroke:#2984a5;stroke-width:11.45px;fill:none;stroke-linecap:round;stroke-linejoin:round"/><path class="st5" d="M384.45 256.43c4.67 8.69 9.06 18.54 10.62 28.49.88 4.9 2 9.51 2.01 14.64.16 5.32 1.04 17.39.93 22.49-.19 46.6-7 95.34-32.57 135.39-5.47 8.44-12 16.27-19.41 23.23-5.17 2.03-11.87 1.9-16.76 4.37 3.33-3.89 6.59-7.93 9.68-12.01 40.59-38.76 49.56-104.16 48.47-158.03l-.65-13.98c.07-4.6-1.09-9.48-1.92-14.11-1.56-9.55-5.17-17.2-9.65-25.71-3-6.18 5.86-10.87 9.25-4.78Z"/><rect x="244.13" y="340.37" width="124.21" height="105.67" rx="17.33" ry="17.33" style="fill:#939598;stroke-miterlimit:10;stroke:#6d6e71"/><path class="st0" d="M504.81 298.88h48.09M306.87 100.94l-1.27-46.97M167.08 159.09l-29.68-29.67M445.54 159.09l30.79-30.79M305.75 496.82v49.21M107.81 298.88H58.6M167.08 437.55l-31.91 31.91M448.35 440.36l29.1 29.1M501.32 298.67c0-256.92-389.86-256.95-389.86 0s389.86 256.92 389.86 0Z"/><circle class="st9" cx="306.23" cy="384.04" r="13.66"/><path class="st9" d="M311.5 416.03h-10.53c-1.94 0-3.46-1.66-3.3-3.59l1.3-15.6a3.311 3.311 0 0 1 3.3-3.04H310c1.71 0 3.13 1.3 3.3 3l1.5 15.6a3.308 3.308 0 0 1-3.3 3.63Z"/></svg>